<svg xmlns="http://www.w3.org/2000/svg" width="420" height="260" viewBox="0 0 420 260" role="img" aria-label="감정하다 memory picture">
<defs>
  <linearGradient id="bg" x1="0" y1="0" x2="1" y2="1"><stop stop-color="#f4f0ff"/><stop offset=".55" stop-color="#ffffff"/><stop offset="1" stop-color="#67e8c9"/></linearGradient>
  <filter id="soft" x="-20%" y="-20%" width="140%" height="140%"><feDropShadow dx="0" dy="7" stdDeviation="5" flood-color="#6d28d9" flood-opacity=".22"/></filter>
</defs>
<rect width="420" height="260" rx="28" fill="url(#bg)"/>
<g opacity=".65">
  <circle cx="34" cy="28" r="10" fill="#ffe66d"/><circle cx="78" cy="58" r="6" fill="#fff"/><circle cx="380" cy="36" r="12" fill="#fff"/><circle cx="365" cy="214" r="8" fill="#ffe66d"/><circle cx="46" cy="220" r="13" fill="#fff"/>
  <path d="M0 234c54-28 84-25 130-4s79 13 124-14 88-30 166-3v47H0z" fill="#ffffff" opacity=".45"/>
  <path d="M22 82h82M316 78h74M44 102h40M320 96h38" stroke="#ffe66d" stroke-width="5" stroke-linecap="round" stroke-dasharray="1 12"/>
</g>
<g filter="url(#soft)"><g><circle cx="222" cy="179" r="50" fill="#ff6b6b" stroke="#39215f" stroke-width="7"/><circle cx="297" cy="178" r="52" fill="#ffe66d" stroke="#39215f" stroke-width="7"/><path d="M252 129c5-34 36-42 61-30" fill="none" stroke="#2f7d57" stroke-width="9" stroke-linecap="round"/><path d="M259 120c-31-26-55-15-62 14 29 8 50 1 62-14z" fill="#67e8c9" stroke="#39215f" stroke-width="5"/><circle cx="318" cy="163" r="8" fill="#fff"/></g></g>
<g>
  <rect x="286" y="20" width="96" height="28" rx="14" fill="#ffffff" opacity=".78"/>
  <text x="334" y="39" text-anchor="middle" font-family="Arial, sans-serif" font-size="12" font-weight="800" fill="#8b5cf6">TOPIK 6</text>
  <path d="M310 53c20 0 35 13 43 29 8-22 28-34 51-34" fill="none" stroke="#ff4fa3" stroke-width="6" stroke-linecap="round"/>
</g>
</svg>