<svg xmlns="http://www.w3.org/2000/svg" width="420" height="260" viewBox="0 0 420 260" role="img" aria-label="가치 memory picture">
<defs>
  <linearGradient id="bg" x1="0" y1="0" x2="1" y2="1"><stop stop-color="#fff9db"/><stop offset=".55" stop-color="#ffffff"/><stop offset="1" stop-color="#ff7ab4"/></linearGradient>
  <filter id="soft" x="-20%" y="-20%" width="140%" height="140%"><feDropShadow dx="0" dy="7" stdDeviation="5" flood-color="#6d28d9" flood-opacity=".22"/></filter>
</defs>
<rect width="420" height="260" rx="28" fill="url(#bg)"/>
<g opacity=".65">
  <circle cx="34" cy="28" r="10" fill="#8b5cf6"/><circle cx="78" cy="58" r="6" fill="#fff"/><circle cx="380" cy="36" r="12" fill="#fff"/><circle cx="365" cy="214" r="8" fill="#8b5cf6"/><circle cx="46" cy="220" r="13" fill="#fff"/>
  <path d="M0 234c54-28 84-25 130-4s79 13 124-14 88-30 166-3v47H0z" fill="#ffffff" opacity=".45"/>
  <path d="M22 82h82M316 78h74M44 102h40M320 96h38" stroke="#8b5cf6" stroke-width="5" stroke-linecap="round" stroke-dasharray="1 12"/>
</g>
<g filter="url(#soft)"><g><path d="M222 151h118c19 0 34 15 34 34v22c0 19-15 34-34 34H222c-19 0-34-15-34-34v-22c0-19 15-34 34-34z" fill="#f7f7ff" stroke="#39215f" stroke-width="6"/><path d="M221 197h119M247 171l-33 50M295 171l-33 50M337 171l-33 50" stroke="#8b5cf6" stroke-width="7" stroke-linecap="round"/><path d="M378 113l14 28 31 5-22 21 5 31-28-15-28 15 5-31-22-21 31-5z" fill="#ffe66d" stroke="#39215f" stroke-width="5"/></g></g>
<g transform="translate(30 98)">
  <rect x="0" y="82" width="78" height="54" rx="12" fill="#39215f"/>
  <rect x="12" y="58" width="54" height="50" rx="14" fill="#ffd6b5" stroke="#39215f" stroke-width="4"/>
  <path d="M8 66c8-34 57-45 66-1-14-10-26-12-39-9-9 2-17 6-27 10z" fill="#39215f"/>
  <rect x="20" y="105" width="40" height="45" rx="8" fill="#ff4fa3" stroke="#39215f" stroke-width="4"/>
  <path d="M15 124l-20 22M65 124l24 18" stroke="#39215f" stroke-width="7" stroke-linecap="round"/>
  <circle cx="29" cy="82" r="4" fill="#39215f"/><circle cx="50" cy="82" r="4" fill="#39215f"/>
  <path d="M30 96c8 7 18 7 25 0" stroke="#ff4fa3" stroke-width="4" stroke-linecap="round"/>
</g>
<g>
  <rect x="286" y="20" width="96" height="28" rx="14" fill="#ffffff" opacity=".78"/>
  <text x="334" y="39" text-anchor="middle" font-family="Arial, sans-serif" font-size="12" font-weight="800" fill="#8b5cf6">TOPIK 4</text>
  <path d="M310 53c20 0 35 13 43 29 8-22 28-34 51-34" fill="none" stroke="#ff4fa3" stroke-width="6" stroke-linecap="round"/>
</g>
</svg>